<svg xmlns="http://www.w3.org/2000/svg" version="1.1" xmlns:xlink="http://www.w3.org/1999/xlink" xmlns:svgjs="http://svgjs.dev/svgjs" viewBox="0 0 1920 1080"><rect width="1920" height="1080" fill="#292828"></rect><g transform="matrix(-2.112515728529184e-16,-1.15,1.15,-2.112515728529184e-16,332.7500753402712,1636.8125866413118)"><path d="M0,-1080C1.3335829632038265,-930.5998681600403,9.230484838589339,-459.6829708996837,8.001497779222959,-183.5992089602414C6.772510719856579,92.48455297920088,-24.529149930927982,315.2744403455667,-7.373922356198278,576.5025716366538C9.781305218531426,837.7307029277408,109.70387616823481,1119.8533407257237,110.93286322760119,1383.7695787862813C112.16185028696756,1647.6858168468389,18.48881053793353,2030.6282631310469,0,2160L 1920 2160 L 1920 -1080 Z" fill="url(&quot;#SvgjsLinearGradient1433&quot;)"></path><path d="M240,-1080C225.2743868914471,-1017.5188409166569,161.07910590745396,-862.2671842705491,151.64632134868265,-705.1130454999419C142.21353678991133,-547.9589067293347,178.71140432799692,-297.9174982216741,183.4032926473721,-137.07516737635657C188.09518096674728,23.767163468960945,164.06534179522993,96.97880536450356,179.79765126493373,259.94093957196327C195.52996073463754,422.903073779423,261.2273429934306,678.1234394375398,277.7971494655949,840.6976378684017C294.36695593775914,1003.2718362992636,286.25921501004893,1078.9388470817764,279.2164900979193,1235.3861301571346C272.17376518578965,1391.8334132324928,242.0768816758034,1625.2790246800735,235.54079999281686,1779.381336320551C229.0047183098303,1933.4836479610287,239.25679999880282,2096.563556053425,240,2160L 1920 2160 L 1920 -1080 Z" fill="url(&quot;#SvgjsLinearGradient1434&quot;)"></path><path d="M480,-1080C478.07170835150026,-976.3090300830171,474.6264409409566,-619.9200459813957,468.4302501090016,-457.8541804981028C462.2340592770465,-295.7883150148099,426.3678332076524,-291.0580983761027,442.8228550082695,-107.60480710024275C459.2778768088867,75.84848417561717,555.9833326491306,437.70134197726327,567.1603809127043,642.8655671570568C578.3374291762781,848.0297923368504,528.1812193102985,943.7777443679678,509.8851445897118,1123.3805439785183C491.5890698691251,1302.9833435890687,462.364790020803,1547.712455483446,457.3839325891844,1720.4823648203596C452.40307515756575,1893.2522741572732,476.23065543153075,2086.747060803393,480,2160L 1920 2160 L 1920 -1080 Z" fill="url(&quot;#SvgjsLinearGradient1435&quot;)"></path><path d="M720,-1080C710.9670860566616,-994.7473453066033,671.7153093531564,-724.6662664681376,665.8025163399694,-568.4840718396199C659.8897233267825,-412.30187721110224,692.7552146636235,-280.77095722402714,684.523241920878,-142.90683222889402C676.2912691781326,-5.042707233760865,600.4997958624022,96.53459737545981,616.4106798834963,258.70067813117913C632.3215639045904,420.8667588868984,781.1022182449133,657.7017551781694,779.9885460474433,830.0896523054219C778.8748738499733,1002.4775494326743,625.792773621347,1133.1175666703982,609.7286466986759,1293.0280608946937C593.6645197760048,1452.9385551189891,665.2252256278625,1645.057294466977,683.6037845114165,1789.5526176511949C701.9823433949705,1934.0479408354126,713.9339640852361,2098.2587696085325,720,2160L 1920 2160 L 1920 -1080 Z" fill="url(&quot;#SvgjsLinearGradient1436&quot;)"></path><path d="M960,-1080C969.6602769505705,-960.2623472766218,1009.7217465882173,-622.2156921164482,1017.9616617034227,-361.57408365973095C1026.201576818628,-100.93247520301372,1010.8591652503928,197.3119807750399,1009.4394906912319,483.84965074030345C1008.0198161320709,770.3873207055669,1017.6835294636619,1078.2935445885676,1009.4436143484565,1357.6519361318503C1001.2036992332512,1637.010327675133,968.2406023914094,2026.2753226886416,960,2160L 1920 2160 L 1920 -1080 Z" fill="url(&quot;#SvgjsLinearGradient1437&quot;)"></path><path d="M1200,-1080C1202.1046839300686,-977.6410344334462,1225.3019698830303,-671.2714674035213,1212.6281035804118,-465.84620660067714C1199.9542372777933,-260.4209457978329,1111.209793211891,-57.23422410967345,1123.956802184289,152.55156481706507C1136.703811156687,362.3373537438036,1270.0678811316673,555.6840821381002,1289.1101574147995,792.8685269597539C1308.1524336979317,1030.0529717814077,1253.0621527855483,1347.80298824028,1238.2104598830817,1575.6582337469877C1223.3587669806152,1803.5134792536953,1206.3684099805137,2062.609705624498,1200,2160L 1920 2160 L 1920 -1080 Z" fill="url(&quot;#SvgjsLinearGradient1438&quot;)"></path><path d="M1440,-1080C1431.047576519324,-998.8838301298622,1383.0776297054097,-738.0407457559827,1386.2854591159437,-593.3029807791729C1389.4932885264777,-448.5652158023631,1450.6728190762437,-357.91324070764324,1459.246976463204,-211.5734101391413C1467.8211338501642,-65.23357957063936,1446.6478340804426,107.21821983874975,1437.7304034377053,284.7360026318386C1428.812972794968,462.2537854249274,1390.355625457545,690.9817614141335,1405.7423926067802,853.5332866193916C1421.1291597560153,1016.0848118246496,1540.7912497224725,1120.4468754283453,1530.0510063331158,1260.0451538633868C1519.310762943759,1399.6434322984283,1356.3094333261593,1541.1304828735388,1341.30093227064,1691.122957229641C1326.2924312151208,1841.1154315857434,1423.55015537844,2081.85382620494,1440,2160L 1920 2160 L 1920 -1080 Z" fill="url(&quot;#SvgjsLinearGradient1439&quot;)"></path><path d="M1680,-1080C1670.3337902197713,-984.6911462787281,1635.434113613477,-665.0023543639275,1622.0027413186276,-508.14687767236853C1608.5713690237783,-351.2914009808096,1599.7076774710188,-288.9020980576561,1599.4117662309036,-138.8671398506467C1599.1158549907884,11.167818356362659,1605.1800154155253,235.30904854941795,1620.2272738779368,392.0628715696877C1635.2745323403483,548.8166945899574,1695.7157101061816,643.4012218527239,1689.6953170053732,801.6557982709717C1683.6749239045648,959.9103746892195,1577.5743989707557,1205.2037639679245,1584.104915273087,1341.590330079174C1590.6354315754184,1477.9768961904235,1712.895900698209,1483.5735832849975,1728.8784148193613,1619.9751949384686C1744.8609289405135,1756.3768065919396,1688.1464024698935,2069.995865823078,1680,2160L 1920 2160 L 1920 -1080 Z" fill="url(&quot;#SvgjsLinearGradient1440&quot;)"></path></g><defs><linearGradient x1="0.1" y1="0" x2="0" y2="1" id="SvgjsLinearGradient1433"><stop stop-color="#292828" offset="0"></stop><stop stop-color="#292828" offset="0"></stop></linearGradient><linearGradient x1="0.1" y1="0" x2="0" y2="1" id="SvgjsLinearGradient1434"><stop stop-color="#242323" offset="0"></stop><stop stop-color="#242323" offset="0.125"></stop></linearGradient><linearGradient x1="0.1" y1="0" x2="0" y2="1" id="SvgjsLinearGradient1435"><stop stop-color="#1f1e1e" offset="0"></stop><stop stop-color="#1f1e1e" offset="0.25"></stop></linearGradient><linearGradient x1="0.1" y1="0" x2="0" y2="1" id="SvgjsLinearGradient1436"><stop stop-color="#1a1919" offset="0"></stop><stop stop-color="#1a1919" offset="0.375"></stop></linearGradient><linearGradient x1="0.1" y1="0" x2="0" y2="1" id="SvgjsLinearGradient1437"><stop stop-color="#151414" offset="0"></stop><stop stop-color="#151414" offset="0.5"></stop></linearGradient><linearGradient x1="0.1" y1="0" x2="0" y2="1" id="SvgjsLinearGradient1438"><stop stop-color="#0f0f0f" offset="0"></stop><stop stop-color="#0f0f0f" offset="0.625"></stop></linearGradient><linearGradient x1="0.1" y1="0" x2="0" y2="1" id="SvgjsLinearGradient1439"><stop stop-color="#0a0a0a" offset="0"></stop><stop stop-color="#0a0a0a" offset="0.75"></stop></linearGradient><linearGradient x1="0.1" y1="0" x2="0" y2="1" id="SvgjsLinearGradient1440"><stop stop-color="#050505" offset="0"></stop><stop stop-color="#050505" offset="0.875"></stop></linearGradient></defs></svg>