<svg xmlns="http://www.w3.org/2000/svg" version="1.1" xmlns:xlink="http://www.w3.org/1999/xlink" xmlns:svgjs="http://svgjs.dev/svgjs" viewBox="0 0 1920 1080"><rect width="1920" height="1080" fill="#670919"></rect><g transform="matrix(0.8131727983645296,0.8131727983645295,-0.8131727983645295,0.8131727983645296,607.7605463672428,-633.1570853879334)"><path d="M0,-1080C-15.170771703878549,-991.0876759126976,-82.99645577704472,-685.4570978581793,-91.02463022327129,-546.5260554761853C-99.05280466949786,-407.59501309419136,-44.43954161248748,-368.9787049263748,-48.169046677359404,-246.41374570803652C-51.89855174223133,-123.84878648969824,-124.84248649157509,7.7430923565312355,-113.40166061250284,188.86369983384435C-101.96083473343059,369.98430731115747,-14.690373071888729,665.0816877062272,20.475908597074067,840.3098991558422C55.64219026603686,1015.5381106054573,116.0320915971816,1109.9495113522453,97.59602940127394,1240.2329685315349C79.15996720536627,1370.5164257108245,-73.87445967815964,1468.716136986836,-90.14046457837196,1622.0106422315803C-106.40646947858428,1775.3051474763245,-15.023410763061994,2070.3351070385966,0,2160L 1920 2160 L 1920 -1080 Z" fill="url(&quot;#SvgjsLinearGradient1433&quot;)"></path><path d="M160,-1080C140.88333164110506,-925.2361913774713,42.299077302554416,-404.18199244418906,45.2999898466303,-151.4171482648278C48.30090239070618,101.34769591453346,157.5317918779299,191.44439619849413,178.0054752644553,436.58906507616757C198.4791586509807,681.733733953841,171.14300270985862,1032.215709180574,168.14209016578275,1319.4508650012128C165.14117762170687,1606.6860208218516,161.35701502763047,2019.908477500202,160,2160L 1920 2160 L 1920 -1080 Z" fill="url(&quot;#SvgjsLinearGradient1434&quot;)"></path><path d="M320,-1080C321.69126995113174,-995.7655917408349,315.68616482782323,-718.9356145600509,330.1476197067904,-574.5935504450097C344.6090745857576,-430.2514863299685,419.6795664760804,-342.174562883862,406.768729273803,-213.9476153097529C393.85789207152555,-85.72066773564384,264.12356248371674,74.32607544535688,252.6825964931259,194.76813499964476C241.24163050253506,315.21019455393264,328.96915432443706,379.2606029755053,338.1229333302579,508.7047420159743C347.2767123360788,638.1488810564433,295.76758889075506,849.4276269687231,307.6052705280512,971.4329692424587C319.4429521653474,1093.4383115161943,401.3617463969838,1101.177711165874,409.149023154035,1240.736795658388C416.93629991108617,1380.2958801509021,369.18710159603074,1655.5769421406085,354.32893107035824,1808.7874761975438C339.47076054468573,1961.9980102544791,325.72148851172636,2101.464579366257,320,2160L 1920 2160 L 1920 -1080 Z" fill="url(&quot;#SvgjsLinearGradient1435&quot;)"></path><path d="M480,-1080C481.4316936335961,-976.238877928575,499.78113661601606,-668.9282079855176,488.5901618015768,-457.43326757144973C477.39918698713757,-245.9383271573819,423.1535404975104,-21.877661410757895,412.8541511133644,188.96964248440702C402.55476172921846,399.81694637957196,413.74337128925777,579.3670620533325,426.79382549670106,807.6505557995397C439.84427970414436,1035.934049545747,482.2891806074743,1333.2790309282404,491.15687635802414,1558.6706049616505C500.024572108574,1784.0621789950605,481.859479393004,2059.778434160275,480,2160L 1920 2160 L 1920 -1080 Z" fill="url(&quot;#SvgjsLinearGradient1436&quot;)"></path><path d="M640,-1080C645.7189176238752,-986.887662979332,684.2301090603623,-685.0866121539913,674.313505743251,-521.3259778759923C664.3969024261396,-357.5653435979933,590.1912612414121,-256.2998775953607,580.5003800973316,-97.43619433200598C570.809498953251,61.427488931348734,627.0715543625291,235.83537154389617,616.1682188787673,431.856121704136C605.2648833950055,627.8768718643759,498.5280218266423,893.2375563601051,515.0803671947608,1078.688306629433C531.6327125628793,1264.139056898761,694.662352286605,1364.3420077583428,715.4822910874782,1544.560623320104C736.3022298883513,1724.7792388818652,652.580381847913,2057.4267705533507,640,2160L 1920 2160 L 1920 -1080 Z" fill="url(&quot;#SvgjsLinearGradient1437&quot;)"></path><path d="M800,-1080C794.9272331804518,-992.9356459557397,757.869425345634,-739.0838063952459,769.5633990827109,-557.6138757344379C781.2573728197879,-376.1439450736299,877.1315038991198,-185.13369346294027,870.1638424224612,8.819583964848277C863.1961809458027,202.77286139263683,729.2098609715705,430.91881295591986,727.7574302227595,606.1057888322935C726.3049994739484,781.292764708667,839.0345955781634,887.2800379747254,861.4492579295952,1059.94143922309C883.863920281027,1232.6028404714543,872.4869473196163,1458.731102859662,862.2454043313504,1642.0741963224805C852.0038613430845,1825.4172897852989,810.3742340552251,2073.6790327204135,800,2160L 1920 2160 L 1920 -1080 Z" fill="url(&quot;#SvgjsLinearGradient1438&quot;)"></path><path d="M960,-1080C959.5542027724852,-956.272588259445,958.9920265326563,-570.8856226221038,957.3252166349109,-337.6355295566703C955.6584067371656,-104.38543649123673,952.0717257244775,111.030230724798,949.9991406135279,319.5005583926014C947.9265555025783,527.9708860604048,959.6708083550127,700.7123652252504,944.8897059692134,913.1864364501503C930.1086035834142,1125.6605076750502,858.7941439602679,1386.5427251503588,861.3125262987323,1594.3449857420005C863.8309086371968,1802.1472463336422,943.5520877164554,2065.7241642903336,960,2160L 1920 2160 L 1920 -1080 Z" fill="url(&quot;#SvgjsLinearGradient1439&quot;)"></path><path d="M1120,-1080C1134.4933591681847,-970.6933782778127,1207.344847666674,-617.1662218747543,1206.960155009108,-424.160269666876C1206.5754623515418,-231.15431745899767,1152.421329383877,-96.68673359372764,1117.6918440546037,78.03571324726994C1082.9623587253304,252.75816008826752,1002.4522190663232,458.61133907904923,998.583243033468,624.1744113791094C994.7142670006127,789.7374836791696,1055.79656954674,913.6229547847579,1094.4779878574723,1071.4141470476313C1133.1594061682044,1229.2053393105048,1226.4180842074402,1389.4905894642889,1230.6717528978616,1570.9215649563503C1234.925421588283,1752.3525404484117,1138.4452921496436,2061.8202608260585,1120,2160L 1920 2160 L 1920 -1080 Z" fill="url(&quot;#SvgjsLinearGradient1440&quot;)"></path><path d="M1280,-1080C1274.6799389625658,-997.0053895645425,1250.9803915156522,-707.2537015522557,1248.0796337753943,-582.032337387255C1245.1788760351365,-456.8109732222542,1267.2653398447808,-437.42084289484296,1262.5954535584528,-328.6718150099953C1257.925567272125,-219.9227871251477,1236.8169759032996,-71.20991476070142,1220.0603160574271,70.46182992183083C1203.3036562115547,212.13357460436308,1160.3482154103779,377.2234088915088,1162.0554944832184,521.3586530851982C1163.7627735560588,665.4938972788875,1223.687023763661,801.7878682683034,1230.3039904944703,935.2732950839669C1236.9209572252796,1068.7587218996302,1172.3311753368184,1167.3609960221058,1201.7572948680736,1322.2712139791788C1231.1834143993287,1477.1814319362518,1393.8202568266795,1725.1131384896012,1406.8607076820006,1864.7346028264046C1419.9011585373216,2004.356067163208,1301.1434512803335,2110.7891004710673,1280,2160L 1920 2160 L 1920 -1080 Z" fill="url(&quot;#SvgjsLinearGradient1441&quot;)"></path><path d="M1440,-1080C1441.4021128271888,-981.2776595748688,1434.110115085451,-711.7620327672596,1448.412676963133,-487.6659574492131C1462.715238840815,-263.56988213116665,1527.7656403158348,52.07022585610727,1525.815371266091,264.5764519082792C1523.8651022163472,477.08267796045106,1454.5533983806486,579.3661311655312,1436.7110626646695,787.3713988638185C1418.8687269486904,995.3766665621058,1418.2132007476612,1283.836624575306,1418.7613569702162,1512.6080580980029C1419.3095131927712,1741.3794916206998,1436.4602261617026,2052.101343016334,1440,2160L 1920 2160 L 1920 -1080 Z" fill="url(&quot;#SvgjsLinearGradient1442&quot;)"></path><path d="M1600,-1080C1610.7249666653963,-986.6222237286935,1674.049132273051,-727.7373159666967,1664.3497999923775,-519.7333423721609C1654.6504677117039,-311.72936877762515,1569.3470879204501,-59.53414851164945,1541.8040063159578,168.02384156721445C1514.2609247114656,395.58183164607834,1490.4425606681023,607.6851214792212,1499.0913103654234,845.6145981010225C1507.7400600627445,1083.5440747228238,1576.878389560789,1376.5364676481927,1593.6965044998851,1595.6007012980222C1610.5146194389813,1814.6649349478516,1598.9494174166475,2065.933450216337,1600,2160L 1920 2160 L 1920 -1080 Z" fill="url(&quot;#SvgjsLinearGradient1443&quot;)"></path><path d="M1760,-1080C1745.7288705179233,-952.6160660029875,1661.6786292761933,-588.2577366921528,1674.37322310754,-315.69639601792505C1687.0678169388868,-43.13505534369739,1821.2084056606036,286.6417930183757,1836.167562988081,555.3680440453658C1851.1267203155585,824.0942950723559,1776.8227609037513,1029.222450818243,1764.1281670724045,1296.6611101440153C1751.4335732410577,1564.0997694697876,1760.6880278454007,2016.1101850240025,1760,2160L 1920 2160 L 1920 -1080 Z" fill="url(&quot;#SvgjsLinearGradient1444&quot;)"></path></g><defs><linearGradient x1="0.1" y1="0" x2="0" y2="1" id="SvgjsLinearGradient1433"><stop stop-color="#670919" offset="0"></stop><stop stop-color="#670929" offset="0"></stop></linearGradient><linearGradient x1="0.1" y1="0" x2="0" y2="1" id="SvgjsLinearGradient1434"><stop stop-color="#610818" offset="0"></stop><stop stop-color="#610827" offset="0.08333333333333333"></stop></linearGradient><linearGradient x1="0.1" y1="0" x2="0" y2="1" id="SvgjsLinearGradient1435"><stop stop-color="#5b0816" offset="0"></stop><stop stop-color="#5b0824" offset="0.16666666666666666"></stop></linearGradient><linearGradient x1="0.1" y1="0" x2="0" y2="1" id="SvgjsLinearGradient1436"><stop stop-color="#550715" offset="0"></stop><stop stop-color="#550722" offset="0.25"></stop></linearGradient><linearGradient x1="0.1" y1="0" x2="0" y2="1" id="SvgjsLinearGradient1437"><stop stop-color="#4f0713" offset="0"></stop><stop stop-color="#4f071f" offset="0.3333333333333333"></stop></linearGradient><linearGradient x1="0.1" y1="0" x2="0" y2="1" id="SvgjsLinearGradient1438"><stop stop-color="#490612" offset="0"></stop><stop stop-color="#49061d" offset="0.4166666666666667"></stop></linearGradient><linearGradient x1="0.1" y1="0" x2="0" y2="1" id="SvgjsLinearGradient1439"><stop stop-color="#430610" offset="0"></stop><stop stop-color="#43061a" offset="0.5"></stop></linearGradient><linearGradient x1="0.1" y1="0" x2="0" y2="1" id="SvgjsLinearGradient1440"><stop stop-color="#3d050f" offset="0"></stop><stop stop-color="#3d0518" offset="0.5833333333333334"></stop></linearGradient><linearGradient x1="0.1" y1="0" x2="0" y2="1" id="SvgjsLinearGradient1441"><stop stop-color="#37050d" offset="0"></stop><stop stop-color="#370515" offset="0.6666666666666666"></stop></linearGradient><linearGradient x1="0.1" y1="0" x2="0" y2="1" id="SvgjsLinearGradient1442"><stop stop-color="#31040c" offset="0"></stop><stop stop-color="#310413" offset="0.75"></stop></linearGradient><linearGradient x1="0.1" y1="0" x2="0" y2="1" id="SvgjsLinearGradient1443"><stop stop-color="#2b040b" offset="0"></stop><stop stop-color="#2b0411" offset="0.8333333333333334"></stop></linearGradient><linearGradient x1="0.1" y1="0" x2="0" y2="1" id="SvgjsLinearGradient1444"><stop stop-color="#250309" offset="0"></stop><stop stop-color="#25030f" offset="0.9166666666666666"></stop></linearGradient></defs></svg>